
<svg xmlns="http://www.w3.org/2000/svg" viewBox="0 0 700 142" version="1.1" width="125px" height="25.35px" style="shape-rendering:geometricPrecision; text-rendering:geometricPrecision; image-rendering:optimizeQuality; fill-rule:evenodd; clip-rule:evenodd" xmlns:xlink="http://www.w3.org/1999/xlink">
<g><path style="opacity:0.984" fill="#000326" d="M 284.5,0.5 C 292.5,0.5 300.5,0.5 308.5,0.5C 308.5,40.8333 308.5,81.1667 308.5,121.5C 300.5,121.5 292.5,121.5 284.5,121.5C 284.5,81.1667 284.5,40.8333 284.5,0.5 Z"/></g>
<g><path style="opacity:0.961" fill="#000326" d="M 552.5,0.5 C 559.167,0.5 565.833,0.5 572.5,0.5C 572.666,8.50694 572.5,16.5069 572,24.5C 565.915,25.3117 559.748,25.8117 553.5,26C 551.955,27.8219 551.288,29.9886 551.5,32.5C 551.54,34.4289 551.873,36.2622 552.5,38C 559.492,38.4996 566.492,38.6663 573.5,38.5C 573.666,46.1739 573.5,53.8406 573,61.5C 565.921,62.4799 558.755,62.8132 551.5,62.5C 551.667,81.8362 551.5,101.17 551,120.5C 543,121.833 535,121.833 527,120.5C 526.5,101.17 526.333,81.8362 526.5,62.5C 521.238,62.8047 516.072,62.4714 511,61.5C 510.5,53.8406 510.334,46.1739 510.5,38.5C 515.511,38.6659 520.511,38.4993 525.5,38C 526.142,28.6581 528.642,19.8247 533,11.5C 538.341,5.58447 544.841,1.9178 552.5,0.5 Z"/></g>
<g><path style="opacity:0.927" fill="#000326" d="M 483.5,4.5 C 497.503,4.3352 502.67,11.0019 499,24.5C 491.613,33.1997 483.947,33.533 476,25.5C 471.93,16.0961 474.43,9.09608 483.5,4.5 Z"/></g>
<g><path style="opacity:0.931" fill="#000326" d="M 699.5,12.5 C 699.5,16.1667 699.5,19.8333 699.5,23.5C 691.797,33.5563 683.63,33.8896 675,24.5C 671.833,9 678,2.83333 693.5,6C 695.734,8.06274 697.734,10.2294 699.5,12.5 Z"/></g>
<g><path style="opacity:0.953" fill="#1309dd" d="M 38.5,8.5 C 41.5184,8.33537 44.5184,8.50204 47.5,9C 53.5,12 59.5,15 65.5,18C 73.5,20 81.5,20 89.5,18C 95.1865,14.9664 100.853,11.9664 106.5,9C 124.988,7.82077 132.488,16.3208 129,34.5C 124.449,43.1918 117.282,46.6918 107.5,45C 101.531,42.0156 95.5311,39.0156 89.5,36C 80.7177,33.7576 72.0511,34.0909 63.5,37C 58.7311,40.1027 53.7311,42.7694 48.5,45C 30.012,46.1792 22.512,37.6792 26,19.5C 28.708,14.0793 32.8747,10.4127 38.5,8.5 Z"/></g>
<g><path style="opacity:0.956" fill="#000326" d="M 230.5,37.5 C 247.119,35.8694 260.619,41.5361 271,54.5C 273.398,57.9021 272.898,60.7354 269.5,63C 264.398,65.9675 259.231,68.8008 254,71.5C 250.844,69.0139 247.678,66.5139 244.5,64C 233.51,60.5806 225.676,64.0806 221,74.5C 219.521,90.354 226.687,97.5207 242.5,96C 246.885,94.2704 250.718,91.7704 254,88.5C 261.43,91.1249 267.93,95.1249 273.5,100.5C 262.093,118.865 245.76,125.698 224.5,121C 201.095,111.7 191.595,94.5336 196,69.5C 201.609,52.3885 213.109,41.7219 230.5,37.5 Z"/></g>
<g><path style="opacity:0.969" fill="#000326" d="M 352.5,37.5 C 361.154,37.032 369.487,38.3654 377.5,41.5C 377.5,40.5 377.5,39.5 377.5,38.5C 385.5,38.5 393.5,38.5 401.5,38.5C 401.5,66.1667 401.5,93.8333 401.5,121.5C 393.5,121.5 385.5,121.5 377.5,121.5C 377.688,119.897 377.188,118.563 376,117.5C 356.97,126.227 340.303,122.894 326,107.5C 315.897,91.4122 314.897,74.7455 323,57.5C 330.17,46.6819 340.003,40.0152 352.5,37.5 Z M 354.5,62.5 C 367.783,60.9498 375.45,66.7831 377.5,80C 373.687,95.9064 364.354,100.573 349.5,94C 341.24,85.8946 340.406,77.0613 347,67.5C 349.479,65.6859 351.979,64.0192 354.5,62.5 Z"/></g>
<g><path style="opacity:0.953" fill="#000326" d="M 416.5,37.5 C 423.841,37.3337 431.174,37.5003 438.5,38C 439.337,39.0113 439.67,40.1779 439.5,41.5C 447.62,38.9572 455.954,37.9572 464.5,38.5C 464.5,46.5 464.5,54.5 464.5,62.5C 458.445,62.3379 452.445,62.8379 446.5,64C 444.413,64.7922 442.579,65.9588 441,67.5C 439.707,85.1009 439.041,102.768 439,120.5C 431.246,121.647 423.413,121.814 415.5,121C 414.339,93.9054 414.172,66.7388 415,39.5C 415.717,38.9558 416.217,38.2891 416.5,37.5 Z"/></g>
<g><path style="opacity:0.972" fill="#000326" d="M 611.5,37.5 C 620.26,36.4639 628.427,38.1305 636,42.5C 636.309,41.2341 636.809,40.0674 637.5,39C 645.159,38.5003 652.826,38.3336 660.5,38.5C 660.5,66.1667 660.5,93.8333 660.5,121.5C 652.826,121.666 645.159,121.5 637.5,121C 636.809,119.933 636.309,118.766 636,117.5C 617.27,126.153 600.603,123.153 586,108.5C 573.852,90.3906 573.519,72.0572 585,53.5C 592.145,45.1854 600.979,39.852 611.5,37.5 Z M 613.5,62.5 C 624.574,60.7833 632.074,65.1167 636,75.5C 636.119,93.3881 627.619,99.8881 610.5,95C 601.016,88.2032 599.183,79.7032 605,69.5C 607.441,66.5464 610.275,64.2131 613.5,62.5 Z"/></g>
<g><path style="opacity:0.947" fill="#000326" d="M 475.5,38.5 C 483.5,38.5 491.5,38.5 499.5,38.5C 499.667,65.8354 499.5,93.1687 499,120.5C 491,121.833 483,121.833 475,120.5C 474.176,93.0946 474.343,65.7613 475.5,38.5 Z"/></g>
<g><path style="opacity:0.947" fill="#000326" d="M 699.5,39.5 C 699.5,66.5 699.5,93.5 699.5,120.5C 691.333,121.819 683.167,121.819 675,120.5C 674.5,93.1687 674.333,65.8354 674.5,38.5C 682.918,38.1981 691.252,38.5314 699.5,39.5 Z"/></g>
<g><path style="opacity:0.952" fill="#1309dd" d="M 14.5,56.5 C 26.6152,55.4601 34.1152,60.7935 37,72.5C 36.8825,87.9963 29.0492,94.8296 13.5,93C 0.74504,87.08 -2.75496,77.58 3,64.5C 6.14964,60.6893 9.98297,58.0226 14.5,56.5 Z"/></g>
<g><path style="opacity:0.956" fill="#1309dd" d="M 73.5,56.5 C 78.7046,56.1336 83.7046,56.9669 88.5,59C 102.775,71.8978 116.775,71.5645 130.5,58C 141.942,54.4782 150.442,57.9782 156,68.5C 158.611,86.1677 151.111,94.3344 133.5,93C 127.996,90.8273 122.996,87.8273 118.5,84C 112.619,81.2404 106.619,80.9071 100.5,83C 94.9656,86.599 89.2989,89.9323 83.5,93C 69.8252,94.6669 61.8252,88.6669 59.5,75C 60.6398,66.0428 65.3065,59.8761 73.5,56.5 Z"/></g>
<g><path style="opacity:0.952" fill="#1309dd" d="M 117.5,141.5 C 113.833,141.5 110.167,141.5 106.5,141.5C 101.595,138.708 96.5945,135.875 91.5,133C 82.1667,129.667 72.8333,129.667 63.5,133C 58.5691,136.13 53.5691,138.963 48.5,141.5C 44.8333,141.5 41.1667,141.5 37.5,141.5C 25.4871,135.489 21.9871,126.156 27,113.5C 32.9509,105.383 40.7843,102.883 50.5,106C 55.9422,110.054 61.9422,113.054 68.5,115C 75.5667,115.839 82.5667,115.506 89.5,114C 95.2944,110.527 101.294,107.527 107.5,105C 121.335,103.576 129.002,109.743 130.5,123.5C 129.973,132.346 125.639,138.346 117.5,141.5 Z"/></g>
</svg>
