<?xml version="1.0" encoding="UTF-8"?>
<svg xmlns="http://www.w3.org/2000/svg" xmlns:xlink="http://www.w3.org/1999/xlink" width="296px" height="60px" viewBox="0 0 295 60" version="1.1">
<defs>
<filter id="alpha" filterUnits="objectBoundingBox" x="0%" y="0%" width="100%" height="100%">
  <feColorMatrix type="matrix" in="SourceGraphic" values="0 0 0 0 1 0 0 0 0 1 0 0 0 0 1 0 0 0 1 0"/>
</filter>
<mask id="mask0">
  <g filter="url(#alpha)">
<rect x="0" y="0" width="295" height="60" style="fill:rgb(0%,0%,0%);fill-opacity:0.984314;stroke:none;"/>
  </g>
</mask>
<clipPath id="clip1">
  <rect x="0" y="0" width="295" height="60"/>
</clipPath>
<g id="surface5" clip-path="url(#clip1)">
<path style=" stroke:none;fill-rule:evenodd;fill:rgb(0%,1.176471%,14.901961%);fill-opacity:1;" d="M 119.894531 0.210938 C 123.269531 0.210938 126.640625 0.210938 130.011719 0.210938 C 130.011719 17.253906 130.011719 34.296875 130.011719 51.339844 C 126.640625 51.339844 123.269531 51.339844 119.894531 51.339844 C 119.894531 34.296875 119.894531 17.253906 119.894531 0.210938 Z M 119.894531 0.210938 "/>
</g>
<mask id="mask1">
  <g filter="url(#alpha)">
<rect x="0" y="0" width="295" height="60" style="fill:rgb(0%,0%,0%);fill-opacity:0.960784;stroke:none;"/>
  </g>
</mask>
<clipPath id="clip2">
  <rect x="0" y="0" width="295" height="60"/>
</clipPath>
<g id="surface8" clip-path="url(#clip2)">
<path style=" stroke:none;fill-rule:evenodd;fill:rgb(0%,1.176471%,14.901961%);fill-opacity:1;" d="M 232.839844 0.210938 C 235.648438 0.210938 238.457031 0.210938 241.269531 0.210938 C 241.335938 3.59375 241.269531 6.976562 241.058594 10.351562 C 238.492188 10.695312 235.894531 10.90625 233.261719 10.984375 C 232.609375 11.753906 232.328125 12.671875 232.417969 13.730469 C 232.433594 14.546875 232.574219 15.320312 232.839844 16.054688 C 235.785156 16.265625 238.734375 16.335938 241.6875 16.269531 C 241.757812 19.511719 241.6875 22.75 241.480469 25.984375 C 238.496094 26.398438 235.476562 26.539062 232.417969 26.410156 C 232.488281 34.578125 232.417969 42.746094 232.207031 50.914062 C 228.835938 51.480469 225.464844 51.480469 222.09375 50.914062 C 221.882812 42.746094 221.8125 34.578125 221.882812 26.410156 C 219.664062 26.539062 217.488281 26.394531 215.351562 25.984375 C 215.140625 22.75 215.070312 19.511719 215.140625 16.269531 C 217.25 16.335938 219.359375 16.265625 221.460938 16.054688 C 221.730469 12.109375 222.785156 8.375 224.621094 4.859375 C 226.871094 2.359375 229.613281 0.808594 232.839844 0.210938 Z M 232.839844 0.210938 "/>
</g>
<mask id="mask2">
  <g filter="url(#alpha)">
<rect x="0" y="0" width="295" height="60" style="fill:rgb(0%,0%,0%);fill-opacity:0.92549;stroke:none;"/>
  </g>
</mask>
<clipPath id="clip3">
  <rect x="0" y="0" width="295" height="60"/>
</clipPath>
<g id="surface11" clip-path="url(#clip3)">
<path style=" stroke:none;fill-rule:evenodd;fill:rgb(0%,1.176471%,14.901961%);fill-opacity:1;" d="M 203.761719 1.902344 C 209.660156 1.832031 211.839844 4.648438 210.292969 10.351562 C 207.179688 14.027344 203.949219 14.167969 200.601562 10.773438 C 198.886719 6.800781 199.9375 3.84375 203.761719 1.902344 Z M 203.761719 1.902344 "/>
</g>
<mask id="mask3">
  <g filter="url(#alpha)">
<rect x="0" y="0" width="295" height="60" style="fill:rgb(0%,0%,0%);fill-opacity:0.929412;stroke:none;"/>
  </g>
</mask>
<clipPath id="clip4">
  <rect x="0" y="0" width="295" height="60"/>
</clipPath>
<g id="surface14" clip-path="url(#clip4)">
<path style=" stroke:none;fill-rule:evenodd;fill:rgb(0%,1.176471%,14.901961%);fill-opacity:1;" d="M 294.789062 5.28125 C 294.789062 6.832031 294.789062 8.378906 294.789062 9.929688 C 291.542969 14.179688 288.101562 14.320312 284.464844 10.351562 C 283.128906 3.804688 285.730469 1.195312 292.261719 2.535156 C 293.203125 3.40625 294.046875 4.324219 294.789062 5.28125 Z M 294.789062 5.28125 "/>
</g>
<mask id="mask4">
  <g filter="url(#alpha)">
<rect x="0" y="0" width="295" height="60" style="fill:rgb(0%,0%,0%);fill-opacity:0.952941;stroke:none;"/>
  </g>
</mask>
<clipPath id="clip5">
  <rect x="0" y="0" width="295" height="60"/>
</clipPath>
<g id="surface17" clip-path="url(#clip5)">
<path style=" stroke:none;fill-rule:evenodd;fill:rgb(7.45098%,3.529412%,86.666667%);fill-opacity:1;" d="M 16.226562 3.589844 C 17.496094 3.523438 18.761719 3.59375 20.019531 3.804688 C 22.546875 5.070312 25.074219 6.339844 27.605469 7.605469 C 30.976562 8.449219 34.347656 8.449219 37.71875 7.605469 C 40.113281 6.324219 42.503906 5.054688 44.882812 3.804688 C 52.671875 3.304688 55.835938 6.894531 54.363281 14.578125 C 52.445312 18.25 49.425781 19.730469 45.304688 19.015625 C 42.789062 17.753906 40.257812 16.484375 37.71875 15.210938 C 34.015625 14.265625 30.363281 14.40625 26.761719 15.632812 C 24.75 16.945312 22.644531 18.070312 20.4375 19.015625 C 12.648438 19.511719 9.488281 15.921875 10.957031 8.238281 C 12.097656 5.949219 13.855469 4.398438 16.226562 3.589844 Z M 16.226562 3.589844 "/>
</g>
<mask id="mask5">
  <g filter="url(#alpha)">
<rect x="0" y="0" width="295" height="60" style="fill:rgb(0%,0%,0%);fill-opacity:0.956863;stroke:none;"/>
  </g>
</mask>
<clipPath id="clip6">
  <rect x="0" y="0" width="295" height="60"/>
</clipPath>
<g id="surface20" clip-path="url(#clip6)">
<path style=" stroke:none;fill-rule:evenodd;fill:rgb(0%,1.176471%,14.901961%);fill-opacity:1;" d="M 97.140625 15.84375 C 104.144531 15.15625 109.832031 17.550781 114.207031 23.027344 C 115.21875 24.464844 115.007812 25.664062 113.574219 26.621094 C 111.425781 27.875 109.246094 29.070312 107.042969 30.210938 C 105.710938 29.160156 104.378906 28.105469 103.039062 27.042969 C 98.40625 25.597656 95.105469 27.078125 93.136719 31.480469 C 92.511719 38.179688 95.53125 41.207031 102.195312 40.5625 C 104.042969 39.832031 105.660156 38.777344 107.042969 37.394531 C 110.175781 38.503906 112.914062 40.195312 115.261719 42.464844 C 110.453125 50.226562 103.570312 53.113281 94.609375 51.125 C 84.746094 47.195312 80.742188 39.945312 82.601562 29.367188 C 84.964844 22.136719 89.808594 17.628906 97.140625 15.84375 Z M 97.140625 15.84375 "/>
</g>
<mask id="mask6">
  <g filter="url(#alpha)">
<rect x="0" y="0" width="295" height="60" style="fill:rgb(0%,0%,0%);fill-opacity:0.968627;stroke:none;"/>
  </g>
</mask>
<clipPath id="clip7">
  <rect x="0" y="0" width="295" height="60"/>
</clipPath>
<g id="surface23" clip-path="url(#clip7)">
<path style=" stroke:none;fill-rule:evenodd;fill:rgb(0%,1.176471%,14.901961%);fill-opacity:1;" d="M 148.554688 15.84375 C 152.199219 15.648438 155.710938 16.210938 159.089844 17.535156 C 159.089844 17.113281 159.089844 16.691406 159.089844 16.269531 C 162.460938 16.269531 165.832031 16.269531 169.203125 16.269531 C 169.203125 27.957031 169.203125 39.648438 169.203125 51.339844 C 165.832031 51.339844 162.460938 51.339844 159.089844 51.339844 C 159.167969 50.660156 158.957031 50.097656 158.457031 49.648438 C 150.4375 53.335938 143.414062 51.925781 137.386719 45.421875 C 133.128906 38.625 132.707031 31.582031 136.121094 24.296875 C 139.144531 19.726562 143.285156 16.90625 148.554688 15.84375 Z M 149.394531 26.410156 C 154.996094 25.753906 158.226562 28.21875 159.089844 33.804688 C 157.480469 40.523438 153.550781 42.496094 147.289062 39.71875 C 143.808594 36.292969 143.457031 32.5625 146.234375 28.519531 C 147.28125 27.753906 148.335938 27.050781 149.394531 26.410156 Z M 149.394531 26.410156 "/>
</g>
<mask id="mask7">
  <g filter="url(#alpha)">
<rect x="0" y="0" width="295" height="60" style="fill:rgb(0%,0%,0%);fill-opacity:0.952941;stroke:none;"/>
  </g>
</mask>
<clipPath id="clip8">
  <rect x="0" y="0" width="295" height="60"/>
</clipPath>
<g id="surface26" clip-path="url(#clip8)">
<path style=" stroke:none;fill-rule:evenodd;fill:rgb(0%,1.176471%,14.901961%);fill-opacity:1;" d="M 175.523438 15.84375 C 178.617188 15.773438 181.710938 15.84375 184.796875 16.054688 C 185.148438 16.484375 185.289062 16.976562 185.21875 17.535156 C 188.640625 16.460938 192.152344 16.039062 195.753906 16.269531 C 195.753906 19.648438 195.753906 23.027344 195.753906 26.410156 C 193.203125 26.339844 190.671875 26.550781 188.167969 27.042969 C 187.289062 27.378906 186.515625 27.871094 185.851562 28.519531 C 185.304688 35.957031 185.023438 43.421875 185.007812 50.914062 C 181.738281 51.398438 178.4375 51.472656 175.105469 51.125 C 174.613281 39.679688 174.542969 28.199219 174.894531 16.691406 C 175.195312 16.460938 175.40625 16.179688 175.523438 15.84375 Z M 175.523438 15.84375 "/>
</g>
<mask id="mask8">
  <g filter="url(#alpha)">
<rect x="0" y="0" width="295" height="60" style="fill:rgb(0%,0%,0%);fill-opacity:0.972549;stroke:none;"/>
  </g>
</mask>
<clipPath id="clip9">
  <rect x="0" y="0" width="295" height="60"/>
</clipPath>
<g id="surface29" clip-path="url(#clip9)">
<path style=" stroke:none;fill-rule:evenodd;fill:rgb(0%,1.176471%,14.901961%);fill-opacity:1;" d="M 257.703125 15.84375 C 261.394531 15.40625 264.835938 16.113281 268.027344 17.957031 C 268.160156 17.421875 268.371094 16.929688 268.660156 16.480469 C 271.886719 16.269531 275.121094 16.199219 278.355469 16.269531 C 278.355469 27.957031 278.355469 39.648438 278.355469 51.339844 C 275.121094 51.40625 271.886719 51.339844 268.660156 51.125 C 268.371094 50.675781 268.160156 50.183594 268.027344 49.648438 C 260.136719 53.304688 253.109375 52.035156 246.957031 45.84375 C 241.835938 38.191406 241.699219 30.445312 246.535156 22.605469 C 249.546875 19.09375 253.269531 16.839844 257.703125 15.84375 Z M 258.546875 26.410156 C 263.214844 25.683594 266.375 27.515625 268.027344 31.902344 C 268.078125 39.460938 264.496094 42.207031 257.28125 40.140625 C 253.285156 37.269531 252.511719 33.675781 254.964844 29.367188 C 255.992188 28.117188 257.1875 27.132812 258.546875 26.410156 Z M 258.546875 26.410156 "/>
</g>
<mask id="mask9">
  <g filter="url(#alpha)">
<rect x="0" y="0" width="295" height="60" style="fill:rgb(0%,0%,0%);fill-opacity:0.945098;stroke:none;"/>
  </g>
</mask>
<clipPath id="clip10">
  <rect x="0" y="0" width="295" height="60"/>
</clipPath>
<g id="surface32" clip-path="url(#clip10)">
<path style=" stroke:none;fill-rule:evenodd;fill:rgb(0%,1.176471%,14.901961%);fill-opacity:1;" d="M 200.390625 16.269531 C 203.761719 16.269531 207.132812 16.269531 210.503906 16.269531 C 210.574219 27.816406 210.503906 39.367188 210.292969 50.914062 C 206.921875 51.480469 203.550781 51.480469 200.179688 50.914062 C 199.832031 39.335938 199.902344 27.785156 200.390625 16.269531 Z M 200.390625 16.269531 "/>
</g>
<mask id="mask10">
  <g filter="url(#alpha)">
<rect x="0" y="0" width="295" height="60" style="fill:rgb(0%,0%,0%);fill-opacity:0.945098;stroke:none;"/>
  </g>
</mask>
<clipPath id="clip11">
  <rect x="0" y="0" width="295" height="60"/>
</clipPath>
<g id="surface35" clip-path="url(#clip11)">
<path style=" stroke:none;fill-rule:evenodd;fill:rgb(0%,1.176471%,14.901961%);fill-opacity:1;" d="M 294.789062 16.691406 C 294.789062 28.097656 294.789062 39.507812 294.789062 50.914062 C 291.347656 51.472656 287.90625 51.472656 284.464844 50.914062 C 284.253906 39.367188 284.183594 27.816406 284.253906 16.269531 C 287.800781 16.140625 291.3125 16.28125 294.789062 16.691406 Z M 294.789062 16.691406 "/>
</g>
<mask id="mask11">
  <g filter="url(#alpha)">
<rect x="0" y="0" width="295" height="60" style="fill:rgb(0%,0%,0%);fill-opacity:0.952941;stroke:none;"/>
  </g>
</mask>
<clipPath id="clip12">
  <rect x="0" y="0" width="295" height="60"/>
</clipPath>
<g id="surface38" clip-path="url(#clip12)">
<path style=" stroke:none;fill-rule:evenodd;fill:rgb(7.45098%,3.529412%,86.666667%);fill-opacity:1;" d="M 6.109375 23.875 C 11.214844 23.433594 14.378906 25.6875 15.59375 30.632812 C 15.542969 37.179688 12.242188 40.070312 5.6875 39.296875 C 0.3125 36.792969 -1.160156 32.78125 1.265625 27.253906 C 2.589844 25.644531 4.207031 24.515625 6.109375 23.875 Z M 6.109375 23.875 "/>
</g>
<mask id="mask12">
  <g filter="url(#alpha)">
<rect x="0" y="0" width="295" height="60" style="fill:rgb(0%,0%,0%);fill-opacity:0.956863;stroke:none;"/>
  </g>
</mask>
<clipPath id="clip13">
  <rect x="0" y="0" width="295" height="60"/>
</clipPath>
<g id="surface41" clip-path="url(#clip13)">
<path style=" stroke:none;fill-rule:evenodd;fill:rgb(7.45098%,3.529412%,86.666667%);fill-opacity:1;" d="M 30.976562 23.875 C 33.167969 23.71875 35.277344 24.070312 37.296875 24.929688 C 43.3125 30.378906 49.210938 30.238281 54.996094 24.507812 C 59.820312 23.019531 63.402344 24.496094 65.742188 28.945312 C 66.84375 36.410156 63.683594 39.859375 56.261719 39.296875 C 53.941406 38.378906 51.835938 37.109375 49.9375 35.492188 C 47.460938 34.328125 44.933594 34.1875 42.355469 35.070312 C 40.019531 36.589844 37.632812 38 35.1875 39.296875 C 29.425781 40 26.054688 37.464844 25.074219 31.691406 C 25.554688 27.90625 27.523438 25.300781 30.976562 23.875 Z M 30.976562 23.875 "/>
</g>
<mask id="mask13">
  <g filter="url(#alpha)">
<rect x="0" y="0" width="295" height="60" style="fill:rgb(0%,0%,0%);fill-opacity:0.952941;stroke:none;"/>
  </g>
</mask>
<clipPath id="clip14">
  <rect x="0" y="0" width="295" height="60"/>
</clipPath>
<g id="surface44" clip-path="url(#clip14)">
<path style=" stroke:none;fill-rule:evenodd;fill:rgb(7.45098%,3.529412%,86.666667%);fill-opacity:1;" d="M 49.519531 59.789062 C 47.972656 59.789062 46.425781 59.789062 44.882812 59.789062 C 42.816406 58.609375 40.707031 57.410156 38.5625 56.195312 C 34.628906 54.789062 30.695312 54.789062 26.761719 56.195312 C 24.683594 57.519531 22.574219 58.714844 20.4375 59.789062 C 18.894531 59.789062 17.347656 59.789062 15.804688 59.789062 C 10.742188 57.25 9.265625 53.304688 11.378906 47.957031 C 13.886719 44.527344 17.1875 43.472656 21.28125 44.789062 C 23.574219 46.5 26.105469 47.769531 28.867188 48.589844 C 31.847656 48.945312 34.796875 48.804688 37.71875 48.167969 C 40.160156 46.703125 42.6875 45.433594 45.304688 44.367188 C 51.132812 43.765625 54.363281 46.371094 54.996094 52.183594 C 54.773438 55.921875 52.949219 58.457031 49.519531 59.789062 Z M 49.519531 59.789062 "/>
</g>
</defs>
<g id="surface1">
<use xlink:href="#surface5" mask="url(#mask0)"/>
<use xlink:href="#surface8" mask="url(#mask1)"/>
<use xlink:href="#surface11" mask="url(#mask2)"/>
<use xlink:href="#surface14" mask="url(#mask3)"/>
<use xlink:href="#surface17" mask="url(#mask4)"/>
<use xlink:href="#surface20" mask="url(#mask5)"/>
<use xlink:href="#surface23" mask="url(#mask6)"/>
<use xlink:href="#surface26" mask="url(#mask7)"/>
<use xlink:href="#surface29" mask="url(#mask8)"/>
<use xlink:href="#surface32" mask="url(#mask9)"/>
<use xlink:href="#surface35" mask="url(#mask10)"/>
<use xlink:href="#surface38" mask="url(#mask11)"/>
<use xlink:href="#surface41" mask="url(#mask12)"/>
<use xlink:href="#surface44" mask="url(#mask13)"/>
</g>
</svg>
