<?xml version="1.0" standalone="no"?>
<!DOCTYPE svg PUBLIC "-//W3C//DTD SVG 20010904//EN"
 "http://www.w3.org/TR/2001/REC-SVG-20010904/DTD/svg10.dtd">
<svg version="1.0" xmlns="http://www.w3.org/2000/svg"
 width="316.000000pt" height="269.000000pt" viewBox="0 0 316.000000 269.000000" 
 preserveAspectRatio="xMidYMid meet">

<g transform="translate(0.000000,269.000000) scale(0.100000,-0.100000)"
fill="#000000" stroke="none">
<path style="opacity:0.978" fill="#004deb" d="M743 2659 c-47 -15 -77 -33 -121 -74 -137 -126 -159 -319 -56 -472
102 -150 299 -200 467 -119 29 14 92 50 141 81 122 76 191 96 347 102 202 9
307 -19 479 -127 140 -87 211 -108 314 -89 146 26 250 120 291 263 48 164 -39
349 -198 422 -55 26 -73 29 -157 29 -110 0 -137 -10 -281 -101 -49 -31 -118
-67 -154 -80 -139 -50 -362 -52 -508 -3 -34 11 -114 52 -178 90 -64 39 -138
77 -164 85 -65 19 -148 17 -222 -7z"/>
<path style="opacity:0.978" fill="#004deb" d="M270 1695 c-214 -60 -327 -301 -236 -501 76 -167 260 -250 436 -198
101 30 181 100 228 203 23 47 27 70 27 146 0 82 -3 97 -33 157 -77 156 -258
238 -422 193z"/>
<path style="opacity:0.978" fill="#004deb" d="M1501 1700 c-70 -15 -125 -47 -180 -105 -86 -90 -120 -198 -100 -309
31 -172 164 -293 334 -304 107 -7 166 14 277 99 119 90 174 116 275 131 150
22 255 -8 398 -113 128 -94 218 -125 331 -116 165 13 304 156 321 329 21 228
-190 425 -417 389 -73 -12 -121 -37 -224 -115 -117 -89 -168 -109 -295 -114
-137 -6 -205 13 -303 81 -154 107 -172 117 -222 131 -71 20 -143 26 -195 16z"/>
<path style="opacity:0.978" fill="#004deb"  d="M743 711 c-208 -77 -301 -308 -204 -505 69 -140 228 -222 382 -197
73 12 111 29 206 90 170 108 267 135 468 128 161 -5 245 -31 388 -118 53 -33
113 -67 133 -75 180 -75 382 5 468 186 27 56 31 76 30 145 0 58 -7 96 -23 137
-49 127 -175 217 -315 226 -100 6 -159 -13 -297 -97 -63 -38 -143 -79 -179
-91 -141 -47 -349 -47 -496 2 -37 12 -106 46 -153 75 -143 90 -185 106 -276
110 -61 3 -93 -1 -132 -16z"/>
</g>
</svg>
